<?xml version="1.0" encoding="UTF-8" standalone="no"?>
<svg
   version="1.1"
   width="355.00912pt"
   height="254.87357pt"
   viewBox="0 0 355.00911 254.87356"
   id="svg60"
   xmlns="http://www.w3.org/2000/svg"
   xmlns:svg="http://www.w3.org/2000/svg">
  <defs
     id="defs25">
    <clipPath
       id="clip_1">
      <path
         transform="matrix(1,0,0,-1,0,841.89)"
         d="m 118.6355,658.4348 h 55.26563 v 39 H 118.6355 Z"
         id="path2" />
    </clipPath>
    <clipPath
       id="clip_2">
      <path
         transform="matrix(1,0,0,-1,0,841.89)"
         d="m 129.1804,667.1239 h 43.72068 v 21.6219 H 129.1804 Z"
         id="path3" />
    </clipPath>
    <clipPath
       id="clip_3">
      <path
         transform="matrix(1,0,0,-1,0,841.89)"
         d="m 217.4954,658.4348 h 55.26566 v 39 H 217.4954 Z"
         id="path4" />
    </clipPath>
    <clipPath
       id="clip_4">
      <path
         transform="matrix(1,0,0,-1,0,841.89)"
         d="m 223.2679,667.1239 h 43.72067 v 21.6219 H 223.2679 Z"
         id="path5" />
    </clipPath>
    <clipPath
       id="clip_5">
      <path
         transform="matrix(1,0,0,-1,0,841.89)"
         d="m 163.7356,689.0279 h 63.86326 v 11.98647 H 163.7356 Z"
         id="path6" />
    </clipPath>
    <clipPath
       id="clip_6">
      <path
         transform="matrix(1,0,0,-1,0,841.89)"
         d="m 162.6818,654.0209 h 64.78476 v 12.91809 H 162.6818 Z"
         id="path7" />
    </clipPath>
    <clipPath
       id="clip_7">
      <path
         transform="matrix(1,0,0,-1,0,841.89)"
         d="m 165.2298,730.8348 h 55.26562 v 39 H 165.2298 Z"
         id="path8" />
    </clipPath>
    <clipPath
       id="clip_8">
      <path
         transform="matrix(1,0,0,-1,0,841.89)"
         d="m 175.7748,739.5239 h 43.72067 v 21.6219 H 175.7748 Z"
         id="path9" />
    </clipPath>
    <clipPath
       id="clip_9">
      <path
         transform="matrix(1,0,0,-1,0,841.89)"
         d="m 187.5357,698.4348 h 11.5995 v 34.5 h -11.5995 z"
         id="path10" />
    </clipPath>
    <clipPath
       id="clip_10">
      <path
         transform="matrix(1,0,0,-1,0,841.89)"
         d="m 217.4954,589 h 55.26566 v 39 H 217.4954 Z"
         id="path11" />
    </clipPath>
    <clipPath
       id="clip_11">
      <path
         transform="matrix(1,0,0,-1,0,841.89)"
         d="m 228.0404,597.689 h 43.72069 v 21.6219 H 228.0404 Z"
         id="path12" />
    </clipPath>
    <clipPath
       id="clip_12">
      <path
         transform="matrix(1,0,0,-1,0,841.89)"
         d="m 318.5789,589 h 55.2656 v 39 h -55.2656 z"
         id="path13" />
    </clipPath>
    <clipPath
       id="clip_13">
      <path
         transform="matrix(1,0,0,-1,0,841.89)"
         d="m 324.3514,597.689 h 43.72069 v 21.6219 H 324.3514 Z"
         id="path14" />
    </clipPath>
    <clipPath
       id="clip_14">
      <path
         transform="matrix(1,0,0,-1,0,841.89)"
         d="m 262.7767,619.4609 h 65.72215 v 12.1186 H 262.7767 Z"
         id="path15" />
    </clipPath>
    <clipPath
       id="clip_15">
      <path
         transform="matrix(1,0,0,-1,0,841.89)"
         d="m 261.7335,584.5861 h 66.63153 v 13.0542 H 261.7335 Z"
         id="path16" />
    </clipPath>
    <clipPath
       id="clip_16">
      <path
         transform="matrix(1,0,0,-1,0,841.89)"
         d="m 319.2955,517.4 h 55.26564 v 39 H 319.2955 Z"
         id="path17" />
    </clipPath>
    <clipPath
       id="clip_17">
      <path
         transform="matrix(1,0,0,-1,0,841.89)"
         d="m 329.8404,526.089 h 43.72068 v 21.6219 H 329.8404 Z"
         id="path18" />
    </clipPath>
    <clipPath
       id="clip_18">
      <path
         transform="matrix(1,0,0,-1,0,841.89)"
         d="m 420.379,517.4 h 55.26563 v 39 H 420.379 Z"
         id="path19" />
    </clipPath>
    <clipPath
       id="clip_19">
      <path
         transform="matrix(1,0,0,-1,0,841.89)"
         d="m 430.9239,526.089 h 43.72067 v 21.6219 H 430.9239 Z"
         id="path20" />
    </clipPath>
    <clipPath
       id="clip_20">
      <path
         transform="matrix(1,0,0,-1,0,841.89)"
         d="m 364.6165,547.8657 h 65.84368 v 12.11388 H 364.6165 Z"
         id="path21" />
    </clipPath>
    <clipPath
       id="clip_21">
      <path
         transform="matrix(1,0,0,-1,0,841.89)"
         d="m 363.5759,512.9861 h 66.74879 v 12.93067 H 363.5759 Z"
         id="path22" />
    </clipPath>
    <clipPath
       id="clip_22">
      <path
         transform="matrix(1,0,0,-1,0,841.89)"
         d="m 270.7355,629.1348 h 30.6 v 50.90008 h -30.6 z"
         id="path23" />
    </clipPath>
    <clipPath
       id="clip_23">
      <path
         transform="matrix(1,0,0,-1,0,841.89)"
         d="m 371.8355,558.0348 h 31.9 v 52.5 h -31.9 z"
         id="path24" />
    </clipPath>
    <clipPath
       id="clip_24">
      <path
         transform="matrix(1,0,0,-1,0,841.89)"
         d="m 288.4355,534.5348 h 32.79998 v 52.2 H 288.4355 Z"
         id="path25" />
    </clipPath>
  </defs>
  <g
     clip-path="url(#clip_1)"
     id="g28"
     transform="translate(-119.63551,-73.016519)">
    <path
       transform="matrix(1,0,0,-1,0,841.89)"
       d="m 164.3934,690.3092 c 10.0102,-6.8342 10.0102,-17.9146 0,-24.7487 -10.0102,-6.8342 -26.24,-6.8342 -36.2503,0 -10.0102,6.8341 -10.0102,17.9145 0,24.7487 10.0103,6.8342 26.2401,6.8342 36.2503,0 z m 0,0"
       fill="#ffffff"
       id="path27" />
    <path
       transform="translate(120.6355,146.4552)"
       stroke-width="2"
       stroke-linecap="butt"
       stroke-miterlimit="4"
       stroke-linejoin="miter"
       fill="none"
       stroke="#ee220c"
       d="m 43.75795,5.125631 c 10.01023,6.834179 10.01023,17.914559 0,24.748739 -10.01024,6.83417 -26.24004,6.83417 -36.250273,0 -10.010236,-6.83418 -10.010236,-17.91456 0,-24.748739 10.010233,-6.834175 26.240033,-6.834175 36.250273,0 z m 0,0"
       id="path28" />
  </g>
  <g
     clip-path="url(#clip_2)"
     id="g29"
     transform="translate(-119.63551,-73.016519)">
    <text
       xml:space="preserve"
       transform="translate(133.1804,166.49329)"
       font-size="11px"
       font-family="HelveticaNeue"
       id="text28"><tspan
         y="0"
         x="0 8.3490009 15.070002"
         id="tspan28">GEF</tspan></text>
  </g>
  <g
     clip-path="url(#clip_3)"
     id="g30"
     transform="translate(-119.63551,-73.016519)">
    <path
       transform="matrix(1,0,0,-1,0,841.89)"
       d="m 263.2534,690.3092 c 10.0102,-6.8342 10.0102,-17.9146 0,-24.7487 -10.0103,-6.8342 -26.24,-6.8342 -36.2503,0 -10.0102,6.8341 -10.0102,17.9145 0,24.7487 10.0103,6.8342 26.24,6.8342 36.2503,0 z m 0,0"
       fill="#ffffff"
       id="path29" />
    <path
       transform="translate(219.4954,146.4552)"
       stroke-width="2"
       stroke-linecap="butt"
       stroke-miterlimit="4"
       stroke-linejoin="miter"
       fill="none"
       stroke="#1db100"
       d="m 43.75795,5.125631 c 10.01023,6.834179 10.01023,17.914559 0,24.748739 -10.01024,6.83417 -26.24004,6.83417 -36.250273,0 -10.010236,-6.83418 -10.010236,-17.91456 0,-24.748739 10.010233,-6.834175 26.240033,-6.834175 36.250273,0 z m 0,0"
       id="path30" />
  </g>
  <g
     clip-path="url(#clip_4)"
     id="g31"
     transform="translate(-119.63551,-73.016519)">
    <text
       xml:space="preserve"
       transform="translate(227.2679,166.49329)"
       font-size="11px"
       font-family="HelveticaNeue"
       id="text30"><tspan
         y="0"
         x="0 5.9070001 14.256001 20.977001"
         id="tspan30">aGEF</tspan></text>
  </g>
  <g
     clip-path="url(#clip_5)"
     id="g32"
     transform="translate(-119.63551,-73.016519)">
    <path
       transform="translate(165.2087,142.87561)"
       stroke-width="2"
       stroke-linecap="butt"
       stroke-miterlimit="4"
       stroke-linejoin="miter"
       fill="none"
       stroke="#000000"
       d="M 0,8.073907 C 17.2061,-1.168656 34.59689,-2.475937 52.17238,4.152065 l 0.91389,0.412306"
       id="path31" />
    <path
       transform="matrix(1,0,0,-1,0,841.89)"
       d="m 215.4095,690.4859 10.7246,0.4274 -6.7767,8.3233 z"
       id="path32" />
  </g>
  <g
     clip-path="url(#clip_6)"
     id="g34"
     transform="translate(-119.63551,-73.016519)">
    <path
       transform="translate(164.186,176.83252)"
       stroke-width="2"
       stroke-linecap="butt"
       stroke-miterlimit="4"
       stroke-linejoin="miter"
       fill="none"
       stroke="#000000"
       d="M 61.80839,0 C 43.08388,10.03116 25.355,11.7109 8.621747,5.03923 l -0.9002,-0.441443"
       id="path33" />
    <path
       transform="matrix(1,0,0,-1,0,841.89)"
       d="m 174.9188,664.3291 -10.7328,-0.0829 6.506,-8.5365 z"
       id="path34" />
  </g>
  <g
     clip-path="url(#clip_7)"
     id="g36"
     transform="translate(-119.63551,-73.016519)">
    <path
       transform="matrix(1,0,0,-1,0,841.89)"
       d="m 210.9878,762.7092 c 10.0102,-6.8342 10.0102,-17.9146 0,-24.7487 -10.0103,-6.8342 -26.2401,-6.8342 -36.2503,0 -10.0102,6.8341 -10.0102,17.9145 0,24.7487 10.0102,6.8342 26.24,6.8342 36.2503,0 z m 0,0"
       fill="#ffffff"
       id="path35" />
    <path
       transform="translate(167.2298,74.05524)"
       stroke-width="2"
       stroke-linecap="butt"
       stroke-miterlimit="4"
       stroke-linejoin="miter"
       fill="none"
       stroke="#0076ba"
       d="m 43.75795,5.125631 c 10.01023,6.834179 10.01023,17.914559 0,24.748739 -10.01024,6.83417 -26.24004,6.83417 -36.250273,0 -10.010236,-6.83418 -10.010236,-17.91456 0,-24.748739 10.010233,-6.834175 26.240033,-6.834175 36.250273,0 z m 0,0"
       id="path36" />
  </g>
  <g
     clip-path="url(#clip_8)"
     id="g37"
     transform="translate(-119.63551,-73.016519)">
    <text
       xml:space="preserve"
       transform="translate(179.7748,94.09332)"
       font-size="11px"
       font-family="HelveticaNeue"
       id="text36"><tspan
         y="0"
         x="0 6.1160007 8.5580006 14.872001 20.988001"
         id="tspan36">Light</tspan></text>
  </g>
  <g
     clip-path="url(#clip_9)"
     id="g38"
     transform="translate(-119.63551,-73.016519)">
    <path
       transform="translate(193.3355,109.9552)"
       stroke-width="2"
       stroke-linecap="butt"
       stroke-miterlimit="4"
       stroke-linejoin="miter"
       fill="none"
       stroke="#000000"
       d="M 0.01041663,22.90047 0,21.90052 V 0"
       id="path37" />
    <path
       transform="matrix(1,0,0,-1,0,841.89)"
       d="m 188.5357,709.9843 4.8998,-9.5495 4.6997,9.6495 z"
       id="path38" />
  </g>
  <g
     clip-path="url(#clip_10)"
     id="g40"
     transform="translate(-119.63551,-73.016519)">
    <path
       transform="matrix(1,0,0,-1,0,841.89)"
       d="m 263.2534,620.8744 c 10.0102,-6.8342 10.0102,-17.9146 0,-24.7488 -10.0103,-6.8341 -26.24,-6.8341 -36.2503,0 -10.0102,6.8342 -10.0102,17.9146 0,24.7488 10.0103,6.8342 26.24,6.8342 36.2503,0 z m 0,0"
       fill="#ffffff"
       id="path39" />
    <path
       transform="translate(219.4954,215.89002)"
       stroke-width="2"
       stroke-linecap="butt"
       stroke-miterlimit="4"
       stroke-linejoin="miter"
       fill="none"
       stroke="#ee220c"
       d="m 43.75795,5.125631 c 10.01023,6.834179 10.01023,17.914559 0,24.748739 -10.01024,6.83417 -26.24004,6.83417 -36.250273,0 -10.010236,-6.83418 -10.010236,-17.91456 0,-24.748739 10.010233,-6.834175 26.240033,-6.834175 36.250273,0 z m 0,0"
       id="path40" />
  </g>
  <g
     clip-path="url(#clip_11)"
     id="g41"
     transform="translate(-119.63551,-73.016519)">
    <text
       xml:space="preserve"
       transform="translate(232.0404,235.9281)"
       font-size="11px"
       font-family="HelveticaNeue"
       id="text40"><tspan
         y="0"
         x="0 7.5350008 13.651001 19.965"
         id="tspan40">RhoA</tspan></text>
  </g>
  <g
     clip-path="url(#clip_12)"
     id="g42"
     transform="translate(-119.63551,-73.016519)">
    <path
       transform="matrix(1,0,0,-1,0,841.89)"
       d="m 364.3369,620.8744 c 10.0102,-6.8342 10.0102,-17.9146 0,-24.7488 -10.0103,-6.8341 -26.2401,-6.8341 -36.2503,0 -10.0102,6.8342 -10.0102,17.9146 0,24.7488 10.0102,6.8342 26.24,6.8342 36.2503,0 z m 0,0"
       fill="#ffffff"
       id="path41" />
    <path
       transform="translate(320.5789,215.89002)"
       stroke-width="2"
       stroke-linecap="butt"
       stroke-miterlimit="4"
       stroke-linejoin="miter"
       fill="none"
       stroke="#1db100"
       d="m 43.75795,5.125631 c 10.01023,6.834179 10.01023,17.914559 0,24.748739 -10.01024,6.83417 -26.24004,6.83417 -36.250273,0 -10.010236,-6.83418 -10.010236,-17.91456 0,-24.748739 10.010233,-6.834175 26.240033,-6.834175 36.250273,0 z m 0,0"
       id="path42" />
  </g>
  <g
     clip-path="url(#clip_13)"
     id="g43"
     transform="translate(-119.63551,-73.016519)">
    <text
       xml:space="preserve"
       transform="translate(328.3514,235.9281)"
       font-size="11px"
       font-family="HelveticaNeue"
       id="text42"><tspan
         y="0"
         x="0 5.9070001 13.442001 19.558002 25.872002"
         id="tspan42">aRhoA</tspan></text>
  </g>
  <g
     clip-path="url(#clip_14)"
     id="g44"
     transform="translate(-119.63551,-73.016519)">
    <path
       transform="translate(264.2445,212.31049)"
       stroke-width="2"
       stroke-linecap="butt"
       stroke-miterlimit="4"
       stroke-linejoin="miter"
       fill="none"
       stroke="#000000"
       d="M 0,8.201 C 17.81543,-1.231616 35.82453,-2.527336 54.02729,4.31384 l 0.91541,0.408927"
       id="path43" />
    <path
       transform="matrix(1,0,0,-1,0,841.89)"
       d="m 316.3164,620.8821 10.723,0.467 -6.8074,8.2981 z"
       id="path44" />
  </g>
  <g
     clip-path="url(#clip_15)"
     id="g46"
     transform="translate(-119.63551,-73.016519)">
    <path
       transform="translate(263.2322,246.13422)"
       stroke-width="2"
       stroke-linecap="butt"
       stroke-miterlimit="4"
       stroke-linejoin="miter"
       fill="none"
       stroke="#000000"
       d="M 63.66635,0 C 44.28095,10.22536 25.93814,11.89877 8.637911,5.020238 L 7.736021,4.582252"
       id="path45" />
    <path
       transform="matrix(1,0,0,-1,0,841.89)"
       d="m 273.9646,595.0545 -10.7324,-0.1241 6.5387,-8.5115 z"
       id="path46" />
  </g>
  <g
     clip-path="url(#clip_16)"
     id="g48"
     transform="translate(-119.63551,-73.016519)">
    <path
       transform="matrix(1,0,0,-1,0,841.89)"
       d="m 365.0534,549.2744 c 10.0102,-6.8342 10.0102,-17.9146 0,-24.7488 -10.0102,-6.8341 -26.24,-6.8341 -36.2503,0 -10.0102,6.8342 -10.0102,17.9146 0,24.7488 10.0103,6.8341 26.2401,6.8341 36.2503,0 z m 0,0"
       fill="#ffffff"
       id="path47" />
    <path
       transform="translate(321.2955,287.49)"
       stroke-width="2"
       stroke-linecap="butt"
       stroke-miterlimit="4"
       stroke-linejoin="miter"
       fill="none"
       stroke="#1db100"
       d="m 43.75795,5.125631 c 10.01023,6.834179 10.01023,17.914559 0,24.748739 -10.01024,6.83417 -26.24004,6.83417 -36.250273,0 -10.010236,-6.83418 -10.010236,-17.91456 0,-24.748739 10.010233,-6.834175 26.240033,-6.834175 36.250273,0 z m 0,0"
       id="path48" />
  </g>
  <g
     clip-path="url(#clip_17)"
     id="g49"
     transform="translate(-119.63551,-73.016519)">
    <text
       xml:space="preserve"
       transform="translate(333.8404,307.52815)"
       font-size="11px"
       font-family="HelveticaNeue"
       id="text48"><tspan
         y="0"
         x="0 5.9070001 14.256001 21.384001"
         id="tspan48">aGAP</tspan></text>
  </g>
  <g
     clip-path="url(#clip_18)"
     id="g50"
     transform="translate(-119.63551,-73.016519)">
    <path
       transform="matrix(1,0,0,-1,0,841.89)"
       d="m 466.1369,549.2744 c 10.0102,-6.8342 10.0102,-17.9146 0,-24.7488 -10.0102,-6.8341 -26.24,-6.8341 -36.2503,0 -10.0102,6.8342 -10.0102,17.9146 0,24.7488 10.0103,6.8341 26.2401,6.8341 36.2503,0 z m 0,0"
       fill="#ffffff"
       id="path49" />
    <path
       transform="translate(422.379,287.49)"
       stroke-width="2"
       stroke-linecap="butt"
       stroke-miterlimit="4"
       stroke-linejoin="miter"
       fill="none"
       stroke="#ee220c"
       d="m 43.75795,5.125631 c 10.01023,6.834179 10.01023,17.914559 0,24.748739 -10.01024,6.83417 -26.24004,6.83417 -36.250273,0 -10.010236,-6.83418 -10.010236,-17.91456 0,-24.748739 10.010233,-6.834175 26.240033,-6.834175 36.250273,0 z m 0,0"
       id="path50" />
  </g>
  <g
     clip-path="url(#clip_19)"
     id="g51"
     transform="translate(-119.63551,-73.016519)">
    <text
       xml:space="preserve"
       transform="translate(434.9239,307.52815)"
       font-size="11px"
       font-family="HelveticaNeue"
       id="text50"><tspan
         y="0"
         x="0 8.3490009 15.477001"
         id="tspan50">GAP</tspan></text>
  </g>
  <g
     clip-path="url(#clip_20)"
     id="g52"
     transform="translate(-119.63551,-73.016519)">
    <path
       transform="translate(366.0832,283.91053)"
       stroke-width="2"
       stroke-linecap="butt"
       stroke-miterlimit="4"
       stroke-linejoin="miter"
       fill="none"
       stroke="#000000"
       d="M 7.833453,4.680187 8.74432,4.267486 c 17.86837,-6.766342 35.92683,-5.485824 54.17774,3.84048"
       id="path51" />
    <path
       transform="matrix(1,0,0,-1,0,841.89)"
       d="m 372.8466,558.0842 -6.7634,-8.3341 10.7253,-0.4102 z"
       id="path52" />
  </g>
  <g
     clip-path="url(#clip_21)"
     id="g54"
     transform="translate(-119.63551,-73.016519)">
    <path
       transform="translate(365.0733,317.85993)"
       stroke-width="2"
       stroke-linecap="butt"
       stroke-miterlimit="4"
       stroke-linejoin="miter"
       fill="none"
       stroke="#000000"
       d="M 55.97319,3.58798 55.06438,4.005187 C 35.63,11.69396 17.276,10.58291 0,0.673126"
       id="path53" />
    <path
       transform="matrix(1,0,0,-1,0,841.89)"
       d="m 422.1403,515.6626 6.722,8.3675 -10.7272,0.3571 z"
       id="path54" />
  </g>
  <g
     clip-path="url(#clip_22)"
     id="g56"
     transform="translate(-119.63551,-73.016519)">
    <path
       transform="translate(271.7355,163.85523)"
       stroke-width="2"
       stroke-linecap="butt"
       stroke-miterlimit="4"
       stroke-linejoin="miter"
       fill="none"
       stroke="#000000"
       d="M 23.8,39.3 V 38.3 0 H 0"
       id="path55" />
    <path
       transform="matrix(1,0,0,-1,0,841.89)"
       d="m 290.7355,639.7348 4.8,-9.6 4.8,9.6 z"
       id="path56" />
  </g>
  <g
     clip-path="url(#clip_23)"
     id="g58"
     transform="translate(-119.63551,-73.016519)">
    <path
       transform="translate(372.8355,233.35523)"
       stroke-width="2"
       stroke-linecap="butt"
       stroke-miterlimit="4"
       stroke-linejoin="miter"
       fill="none"
       stroke="#000000"
       d="m 0,0 h 25.1 v 39.9 1"
       id="path57" />
    <path
       transform="matrix(1,0,0,-1,0,841.89)"
       d="m 393.1355,568.6348 4.8,-9.6 4.8,9.6 z"
       id="path58" />
  </g>
  <g
     clip-path="url(#clip_24)"
     id="g60"
     transform="translate(-119.63551,-73.016519)">
    <path
       transform="translate(294.2355,256.1552)"
       stroke-width="2"
       stroke-linecap="butt"
       stroke-miterlimit="4"
       stroke-linejoin="miter"
       fill="none"
       stroke="#000000"
       d="m 0,8.6 v 1 39.6 h 26"
       id="path59" />
    <path
       transform="matrix(1,0,0,-1,0,841.89)"
       d="m 299.0355,576.1348 -4.8,9.6 -4.8,-9.6 z"
       id="path60" />
  </g>
</svg>
